<mxfile host="app.diagrams.net" modified="2024-06-05T21:55:29.900Z" agent="Mozilla/5.0 (Windows NT 10.0; Win64; x64) AppleWebKit/537.36 (KHTML, like Gecko) Chrome/125.0.0.0 Safari/537.36" etag="Be3_QwadMRa0g4dRcS9u" version="24.4.13" type="device">
  <diagram name="PÃ¡gina-1" id="xOFyH7ZZ8CpGTi37lhgU">
    <mxGraphModel dx="3088" dy="746" grid="1" gridSize="10" guides="1" tooltips="1" connect="1" arrows="1" fold="1" page="1" pageScale="1" pageWidth="1654" pageHeight="1169" math="0" shadow="0">
      <root>
        <mxCell id="0" />
        <mxCell id="1" parent="0" />
        <mxCell id="Heji60GrNNi6qlhw8bSn-1" value="&lt;u style=&quot;font-size: 14px;&quot;&gt;num_PT&lt;/u&gt;" style="whiteSpace=wrap;html=1;strokeWidth=1;fontSize=14;" parent="1" vertex="1">
          <mxGeometry x="400" y="160" width="60" height="40" as="geometry" />
        </mxCell>
        <mxCell id="Heji60GrNNi6qlhw8bSn-2" value="Personal_trainer" style="text;html=1;align=center;verticalAlign=middle;resizable=0;points=[];autosize=1;strokeColor=none;fillColor=none;strokeWidth=1;fontSize=14;" parent="1" vertex="1">
          <mxGeometry x="385" y="130" width="130" height="30" as="geometry" />
        </mxCell>
        <mxCell id="Heji60GrNNi6qlhw8bSn-3" value="&lt;u style=&quot;font-size: 14px;&quot;&gt;num_athlete&lt;/u&gt;" style="whiteSpace=wrap;html=1;strokeWidth=1;fontSize=14;" parent="1" vertex="1">
          <mxGeometry x="210" y="80" width="90" height="40" as="geometry" />
        </mxCell>
        <mxCell id="Heji60GrNNi6qlhw8bSn-4" value="Athlete" style="text;html=1;align=center;verticalAlign=middle;resizable=0;points=[];autosize=1;strokeColor=none;fillColor=none;strokeWidth=1;fontSize=14;" parent="1" vertex="1">
          <mxGeometry x="210" y="50" width="70" height="30" as="geometry" />
        </mxCell>
        <mxCell id="Heji60GrNNi6qlhw8bSn-5" value="&lt;u style=&quot;font-size: 14px;&quot;&gt;num_Ex&lt;/u&gt;" style="whiteSpace=wrap;html=1;strokeWidth=1;fontSize=14;" parent="1" vertex="1">
          <mxGeometry x="80" y="670" width="60" height="40" as="geometry" />
        </mxCell>
        <mxCell id="Heji60GrNNi6qlhw8bSn-7" value="Exercise" style="text;html=1;align=center;verticalAlign=middle;resizable=0;points=[];autosize=1;strokeColor=none;fillColor=none;strokeWidth=1;fontSize=14;" parent="1" vertex="1">
          <mxGeometry x="70" y="640" width="80" height="30" as="geometry" />
        </mxCell>
        <mxCell id="Heji60GrNNi6qlhw8bSn-8" value="&lt;u style=&quot;font-size: 14px;&quot;&gt;num_chat&lt;/u&gt;" style="whiteSpace=wrap;html=1;strokeWidth=1;fontSize=14;" parent="1" vertex="1">
          <mxGeometry x="245" y="390" width="70" height="40" as="geometry" />
        </mxCell>
        <mxCell id="Heji60GrNNi6qlhw8bSn-9" value="Chat" style="text;html=1;align=center;verticalAlign=middle;resizable=0;points=[];autosize=1;strokeColor=none;fillColor=none;strokeWidth=1;fontSize=14;" parent="1" vertex="1">
          <mxGeometry x="235" y="360" width="50" height="30" as="geometry" />
        </mxCell>
        <mxCell id="Heji60GrNNi6qlhw8bSn-10" value="&lt;u style=&quot;font-size: 14px;&quot;&gt;num_msg&lt;/u&gt;" style="whiteSpace=wrap;html=1;strokeWidth=1;fontSize=14;" parent="1" vertex="1">
          <mxGeometry x="175" y="520" width="70" height="40" as="geometry" />
        </mxCell>
        <mxCell id="Heji60GrNNi6qlhw8bSn-11" value="Message" style="text;html=1;align=center;verticalAlign=middle;resizable=0;points=[];autosize=1;strokeColor=none;fillColor=none;strokeWidth=1;fontSize=14;" parent="1" vertex="1">
          <mxGeometry x="167.5" y="490" width="80" height="30" as="geometry" />
        </mxCell>
        <mxCell id="KBUDhK-M9iBR0I8uxHeh-21" style="edgeStyle=orthogonalEdgeStyle;rounded=0;orthogonalLoop=1;jettySize=auto;html=1;strokeWidth=1;fontSize=14;" parent="1" source="Heji60GrNNi6qlhw8bSn-14" edge="1">
          <mxGeometry relative="1" as="geometry">
            <Array as="points">
              <mxPoint x="65" y="170" />
              <mxPoint x="240" y="170" />
            </Array>
            <mxPoint x="240" y="120" as="targetPoint" />
          </mxGeometry>
        </mxCell>
        <mxCell id="Heji60GrNNi6qlhw8bSn-14" value="&lt;u style=&quot;font-size: 14px;&quot;&gt;num_athlete&lt;/u&gt;" style="whiteSpace=wrap;html=1;strokeWidth=1;fontSize=14;" parent="1" vertex="1">
          <mxGeometry x="20" y="200" width="85" height="40" as="geometry" />
        </mxCell>
        <mxCell id="Heji60GrNNi6qlhw8bSn-15" value="Subscription" style="text;html=1;align=center;verticalAlign=middle;resizable=0;points=[];autosize=1;strokeColor=none;fillColor=none;strokeWidth=1;fontSize=14;" parent="1" vertex="1">
          <mxGeometry x="15" y="170" width="100" height="30" as="geometry" />
        </mxCell>
        <mxCell id="KBUDhK-M9iBR0I8uxHeh-22" style="edgeStyle=orthogonalEdgeStyle;rounded=0;orthogonalLoop=1;jettySize=auto;html=1;strokeWidth=1;fontSize=14;" parent="1" source="Heji60GrNNi6qlhw8bSn-18" target="Heji60GrNNi6qlhw8bSn-1" edge="1">
          <mxGeometry relative="1" as="geometry">
            <Array as="points">
              <mxPoint x="410" y="220" />
            </Array>
          </mxGeometry>
        </mxCell>
        <mxCell id="Heji60GrNNi6qlhw8bSn-18" value="&lt;u style=&quot;font-size: 14px;&quot;&gt;num_PT&lt;/u&gt;" style="whiteSpace=wrap;html=1;strokeWidth=1;fontSize=14;" parent="1" vertex="1">
          <mxGeometry x="105" y="200" width="65" height="40" as="geometry" />
        </mxCell>
        <mxCell id="Heji60GrNNi6qlhw8bSn-19" value="name" style="whiteSpace=wrap;html=1;strokeWidth=1;fontSize=14;" parent="1" vertex="1">
          <mxGeometry x="460" y="160" width="60" height="40" as="geometry" />
        </mxCell>
        <mxCell id="KBUDhK-M9iBR0I8uxHeh-1" value="description" style="whiteSpace=wrap;html=1;strokeWidth=1;fontSize=14;" parent="1" vertex="1">
          <mxGeometry x="600" y="160" width="80" height="40" as="geometry" />
        </mxCell>
        <mxCell id="KBUDhK-M9iBR0I8uxHeh-2" value="tags" style="whiteSpace=wrap;html=1;strokeWidth=1;fontSize=14;" parent="1" vertex="1">
          <mxGeometry x="680" y="160" width="60" height="40" as="geometry" />
        </mxCell>
        <mxCell id="KBUDhK-M9iBR0I8uxHeh-3" value="photo" style="whiteSpace=wrap;html=1;strokeWidth=1;fontSize=14;" parent="1" vertex="1">
          <mxGeometry x="740" y="160" width="60" height="40" as="geometry" />
        </mxCell>
        <mxCell id="KBUDhK-M9iBR0I8uxHeh-4" value="price" style="whiteSpace=wrap;html=1;strokeWidth=1;fontSize=14;" parent="1" vertex="1">
          <mxGeometry x="800" y="160" width="60" height="40" as="geometry" />
        </mxCell>
        <mxCell id="KBUDhK-M9iBR0I8uxHeh-5" value="slots" style="whiteSpace=wrap;html=1;strokeWidth=1;fontSize=14;" parent="1" vertex="1">
          <mxGeometry x="860" y="160" width="60" height="40" as="geometry" />
        </mxCell>
        <mxCell id="KBUDhK-M9iBR0I8uxHeh-7" value="path" style="whiteSpace=wrap;html=1;strokeWidth=1;fontSize=14;" parent="1" vertex="1">
          <mxGeometry x="140" y="670" width="50" height="40" as="geometry" />
        </mxCell>
        <mxCell id="KBUDhK-M9iBR0I8uxHeh-8" value="name" style="whiteSpace=wrap;html=1;strokeWidth=1;fontSize=14;" parent="1" vertex="1">
          <mxGeometry x="190" y="670" width="45" height="40" as="geometry" />
        </mxCell>
        <mxCell id="KBUDhK-M9iBR0I8uxHeh-9" value="description" style="whiteSpace=wrap;html=1;strokeWidth=1;fontSize=14;" parent="1" vertex="1">
          <mxGeometry x="235" y="670" width="75" height="40" as="geometry" />
        </mxCell>
        <mxCell id="KBUDhK-M9iBR0I8uxHeh-11" value="muscletargets" style="whiteSpace=wrap;html=1;strokeWidth=1;fontSize=14;" parent="1" vertex="1">
          <mxGeometry x="310" y="670" width="95" height="40" as="geometry" />
        </mxCell>
        <mxCell id="KBUDhK-M9iBR0I8uxHeh-12" value="releasedate" style="whiteSpace=wrap;html=1;strokeWidth=1;fontSize=14;" parent="1" vertex="1">
          <mxGeometry x="405" y="670" width="80" height="40" as="geometry" />
        </mxCell>
        <mxCell id="KBUDhK-M9iBR0I8uxHeh-13" value="premium" style="whiteSpace=wrap;html=1;strokeWidth=1;fontSize=14;" parent="1" vertex="1">
          <mxGeometry x="240" y="1050" width="80" height="40" as="geometry" />
        </mxCell>
        <mxCell id="KBUDhK-M9iBR0I8uxHeh-23" style="edgeStyle=orthogonalEdgeStyle;rounded=0;orthogonalLoop=1;jettySize=auto;html=1;entryX=0.75;entryY=1;entryDx=0;entryDy=0;strokeWidth=1;fontSize=14;" parent="1" source="KBUDhK-M9iBR0I8uxHeh-14" target="Heji60GrNNi6qlhw8bSn-1" edge="1">
          <mxGeometry relative="1" as="geometry">
            <Array as="points">
              <mxPoint x="530" y="310" />
              <mxPoint x="445" y="310" />
            </Array>
          </mxGeometry>
        </mxCell>
        <mxCell id="KBUDhK-M9iBR0I8uxHeh-14" value="PT_num" style="whiteSpace=wrap;html=1;strokeWidth=1;fontSize=14;" parent="1" vertex="1">
          <mxGeometry x="485" y="670" width="80" height="40" as="geometry" />
        </mxCell>
        <mxCell id="KBUDhK-M9iBR0I8uxHeh-15" value="thumbnail" style="whiteSpace=wrap;html=1;strokeWidth=1;fontSize=14;" parent="1" vertex="1">
          <mxGeometry x="565" y="670" width="80" height="40" as="geometry" />
        </mxCell>
        <mxCell id="KBUDhK-M9iBR0I8uxHeh-25" style="edgeStyle=orthogonalEdgeStyle;rounded=0;orthogonalLoop=1;jettySize=auto;html=1;strokeWidth=1;fontSize=14;" parent="1" source="KBUDhK-M9iBR0I8uxHeh-16" target="Heji60GrNNi6qlhw8bSn-1" edge="1">
          <mxGeometry relative="1" as="geometry">
            <Array as="points">
              <mxPoint x="430" y="260" />
              <mxPoint x="430" y="260" />
            </Array>
          </mxGeometry>
        </mxCell>
        <mxCell id="KBUDhK-M9iBR0I8uxHeh-16" value="PT_num" style="whiteSpace=wrap;html=1;strokeWidth=1;fontSize=14;" parent="1" vertex="1">
          <mxGeometry x="405" y="390" width="70" height="40" as="geometry" />
        </mxCell>
        <mxCell id="KBUDhK-M9iBR0I8uxHeh-26" style="edgeStyle=orthogonalEdgeStyle;rounded=0;orthogonalLoop=1;jettySize=auto;html=1;strokeWidth=1;fontSize=14;" parent="1" source="KBUDhK-M9iBR0I8uxHeh-17" edge="1">
          <mxGeometry relative="1" as="geometry">
            <Array as="points">
              <mxPoint x="330" y="255" />
              <mxPoint x="260" y="255" />
            </Array>
            <mxPoint x="260" y="120" as="targetPoint" />
          </mxGeometry>
        </mxCell>
        <mxCell id="KBUDhK-M9iBR0I8uxHeh-17" value="athlete_num" style="whiteSpace=wrap;html=1;strokeWidth=1;fontSize=14;" parent="1" vertex="1">
          <mxGeometry x="315" y="390" width="90" height="40" as="geometry" />
        </mxCell>
        <mxCell id="KBUDhK-M9iBR0I8uxHeh-28" style="edgeStyle=orthogonalEdgeStyle;rounded=0;orthogonalLoop=1;jettySize=auto;html=1;entryX=0.5;entryY=1;entryDx=0;entryDy=0;strokeWidth=1;fontSize=14;" parent="1" source="KBUDhK-M9iBR0I8uxHeh-18" target="Heji60GrNNi6qlhw8bSn-8" edge="1">
          <mxGeometry relative="1" as="geometry" />
        </mxCell>
        <mxCell id="KBUDhK-M9iBR0I8uxHeh-18" value="chat_num" style="whiteSpace=wrap;html=1;strokeWidth=1;fontSize=14;" parent="1" vertex="1">
          <mxGeometry x="245" y="520" width="70" height="40" as="geometry" />
        </mxCell>
        <mxCell id="KBUDhK-M9iBR0I8uxHeh-19" value="sent_by_user" style="whiteSpace=wrap;html=1;strokeWidth=1;fontSize=14;" parent="1" vertex="1">
          <mxGeometry x="315" y="520" width="90" height="40" as="geometry" />
        </mxCell>
        <mxCell id="KBUDhK-M9iBR0I8uxHeh-20" value="text" style="whiteSpace=wrap;html=1;strokeWidth=1;fontSize=14;" parent="1" vertex="1">
          <mxGeometry x="405" y="520" width="40" height="40" as="geometry" />
        </mxCell>
        <mxCell id="0Jzr5-8S1MNxwZ_pgq8x-2" value="name" style="whiteSpace=wrap;html=1;strokeWidth=1;fontSize=14;" parent="1" vertex="1">
          <mxGeometry x="300" y="80" width="50" height="40" as="geometry" />
        </mxCell>
        <mxCell id="9H5DFkPvfPc-nbUzGA2L-14" value="&lt;u style=&quot;font-size: 14px;&quot;&gt;num_workout&lt;/u&gt;" style="whiteSpace=wrap;html=1;strokeWidth=1;fontSize=14;" parent="1" vertex="1">
          <mxGeometry x="50" y="1050" width="95" height="40" as="geometry" />
        </mxCell>
        <mxCell id="9H5DFkPvfPc-nbUzGA2L-15" value="Workout" style="text;html=1;align=center;verticalAlign=middle;resizable=0;points=[];autosize=1;strokeColor=none;fillColor=none;strokeWidth=1;fontSize=14;" parent="1" vertex="1">
          <mxGeometry x="55" y="1020" width="80" height="30" as="geometry" />
        </mxCell>
        <mxCell id="9H5DFkPvfPc-nbUzGA2L-19" style="edgeStyle=orthogonalEdgeStyle;rounded=0;orthogonalLoop=1;jettySize=auto;html=1;strokeWidth=1;fontSize=14;" parent="1" source="b22r6mtmfPxNawbEAugW-3" edge="1">
          <mxGeometry relative="1" as="geometry">
            <Array as="points">
              <mxPoint x="-230" y="860" />
              <mxPoint x="90" y="860" />
              <mxPoint x="90" y="710" />
            </Array>
            <mxPoint x="107.5" y="860" as="sourcePoint" />
            <mxPoint x="90" y="710" as="targetPoint" />
          </mxGeometry>
        </mxCell>
        <mxCell id="9H5DFkPvfPc-nbUzGA2L-23" value="reps_made" style="whiteSpace=wrap;html=1;strokeWidth=1;fontSize=14;" parent="1" vertex="1">
          <mxGeometry x="-613" y="600" width="75" height="40" as="geometry" />
        </mxCell>
        <mxCell id="_HKHFMS7d83ES9oDGOB7-4" style="edgeStyle=orthogonalEdgeStyle;rounded=0;orthogonalLoop=1;jettySize=auto;html=1;strokeWidth=1;fontSize=14;" parent="1" source="9H5DFkPvfPc-nbUzGA2L-24" target="oE4eAUQITDJIZxeSnaea-25" edge="1">
          <mxGeometry relative="1" as="geometry">
            <Array as="points">
              <mxPoint x="-708" y="730" />
              <mxPoint x="-270" y="730" />
            </Array>
          </mxGeometry>
        </mxCell>
        <mxCell id="9H5DFkPvfPc-nbUzGA2L-24" value="num_Ex" style="whiteSpace=wrap;html=1;strokeWidth=1;fontSize=14;" parent="1" vertex="1">
          <mxGeometry x="-733" y="600" width="60" height="40" as="geometry" />
        </mxCell>
        <mxCell id="9H5DFkPvfPc-nbUzGA2L-27" value="set_num" style="whiteSpace=wrap;html=1;strokeWidth=1;fontSize=14;" parent="1" vertex="1">
          <mxGeometry x="-673" y="600" width="60" height="40" as="geometry" />
        </mxCell>
        <mxCell id="9H5DFkPvfPc-nbUzGA2L-33" value="title" style="whiteSpace=wrap;html=1;strokeWidth=1;fontSize=14;" parent="1" vertex="1">
          <mxGeometry x="145" y="1050" width="45" height="40" as="geometry" />
        </mxCell>
        <mxCell id="9H5DFkPvfPc-nbUzGA2L-34" value="tags" style="whiteSpace=wrap;html=1;strokeWidth=1;fontSize=14;" parent="1" vertex="1">
          <mxGeometry x="190" y="1050" width="50" height="40" as="geometry" />
        </mxCell>
        <mxCell id="b22r6mtmfPxNawbEAugW-6" style="edgeStyle=orthogonalEdgeStyle;rounded=0;orthogonalLoop=1;jettySize=auto;html=1;strokeWidth=1;fontSize=14;" parent="1" source="b22r6mtmfPxNawbEAugW-1" edge="1">
          <mxGeometry relative="1" as="geometry">
            <Array as="points">
              <mxPoint x="-295" y="1120" />
              <mxPoint x="105" y="1120" />
              <mxPoint x="105" y="1090" />
            </Array>
            <mxPoint x="105" y="1090" as="targetPoint" />
          </mxGeometry>
        </mxCell>
        <mxCell id="b22r6mtmfPxNawbEAugW-1" value="&lt;u style=&quot;font-size: 14px;&quot;&gt;num_workout&lt;/u&gt;" style="whiteSpace=wrap;html=1;strokeWidth=1;fontSize=14;" parent="1" vertex="1">
          <mxGeometry x="-370" y="930" width="105" height="40" as="geometry" />
        </mxCell>
        <mxCell id="b22r6mtmfPxNawbEAugW-2" value="Workout_exercise" style="text;html=1;align=center;verticalAlign=middle;resizable=0;points=[];autosize=1;strokeColor=none;fillColor=none;strokeWidth=1;fontSize=14;" parent="1" vertex="1">
          <mxGeometry x="-375" y="900" width="140" height="30" as="geometry" />
        </mxCell>
        <mxCell id="b22r6mtmfPxNawbEAugW-3" value="&lt;u style=&quot;font-size: 14px;&quot;&gt;num_Ex&lt;/u&gt;" style="whiteSpace=wrap;html=1;strokeWidth=1;fontSize=14;" parent="1" vertex="1">
          <mxGeometry x="-270" y="930" width="65" height="40" as="geometry" />
        </mxCell>
        <mxCell id="oE4eAUQITDJIZxeSnaea-1" value="&lt;u style=&quot;font-size: 14px;&quot;&gt;num_athlete&lt;/u&gt;" style="whiteSpace=wrap;html=1;strokeWidth=1;fontSize=14;" parent="1" vertex="1">
          <mxGeometry x="-60" y="60" width="85" height="40" as="geometry" />
        </mxCell>
        <mxCell id="oE4eAUQITDJIZxeSnaea-2" value="Athlete_weight" style="text;html=1;align=center;verticalAlign=middle;resizable=0;points=[];autosize=1;strokeColor=none;fillColor=none;strokeWidth=1;fontSize=14;" parent="1" vertex="1">
          <mxGeometry x="-72.5" y="30" width="120" height="30" as="geometry" />
        </mxCell>
        <mxCell id="oE4eAUQITDJIZxeSnaea-3" value="weight" style="whiteSpace=wrap;html=1;strokeWidth=1;fontSize=14;" parent="1" vertex="1">
          <mxGeometry x="85" y="60" width="60" height="40" as="geometry" />
        </mxCell>
        <mxCell id="oE4eAUQITDJIZxeSnaea-4" value="&lt;u style=&quot;font-size: 14px;&quot;&gt;date&lt;/u&gt;" style="whiteSpace=wrap;html=1;strokeWidth=1;fontSize=14;" parent="1" vertex="1">
          <mxGeometry x="25" y="60" width="60" height="40" as="geometry" />
        </mxCell>
        <mxCell id="oE4eAUQITDJIZxeSnaea-5" style="edgeStyle=orthogonalEdgeStyle;rounded=0;orthogonalLoop=1;jettySize=auto;html=1;strokeWidth=1;fontSize=14;" parent="1" source="oE4eAUQITDJIZxeSnaea-1" edge="1">
          <mxGeometry relative="1" as="geometry">
            <Array as="points">
              <mxPoint x="-15" y="140" />
              <mxPoint x="230" y="140" />
            </Array>
            <mxPoint x="230" y="120" as="targetPoint" />
          </mxGeometry>
        </mxCell>
        <mxCell id="oE4eAUQITDJIZxeSnaea-6" value="Reps_progress" style="text;html=1;align=center;verticalAlign=middle;resizable=0;points=[];autosize=1;strokeColor=none;fillColor=none;strokeWidth=1;fontSize=14;" parent="1" vertex="1">
          <mxGeometry x="-936" y="570" width="120" height="30" as="geometry" />
        </mxCell>
        <mxCell id="oE4eAUQITDJIZxeSnaea-9" value="time" style="whiteSpace=wrap;html=1;strokeWidth=1;fontSize=14;" parent="1" vertex="1">
          <mxGeometry x="-60.5" y="600" width="45" height="40" as="geometry" />
        </mxCell>
        <mxCell id="oE4eAUQITDJIZxeSnaea-10" value="Time_progress" style="text;html=1;align=center;verticalAlign=middle;resizable=0;points=[];autosize=1;strokeColor=none;fillColor=none;strokeWidth=1;fontSize=14;" parent="1" vertex="1">
          <mxGeometry x="-400" y="570" width="120" height="30" as="geometry" />
        </mxCell>
        <mxCell id="oE4eAUQITDJIZxeSnaea-11" value="&lt;u style=&quot;font-size: 14px;&quot;&gt;entry_num&lt;/u&gt;" style="whiteSpace=wrap;html=1;strokeWidth=1;fontSize=14;" parent="1" vertex="1">
          <mxGeometry x="-936" y="600" width="75" height="40" as="geometry" />
        </mxCell>
        <mxCell id="oE4eAUQITDJIZxeSnaea-12" value="&lt;u style=&quot;font-size: 14px;&quot;&gt;entry_num&lt;/u&gt;" style="whiteSpace=wrap;html=1;strokeWidth=1;fontSize=14;" parent="1" vertex="1">
          <mxGeometry x="-390" y="600" width="77.5" height="40" as="geometry" />
        </mxCell>
        <mxCell id="_HKHFMS7d83ES9oDGOB7-5" style="edgeStyle=orthogonalEdgeStyle;rounded=0;orthogonalLoop=1;jettySize=auto;html=1;strokeWidth=1;fontSize=14;" parent="1" source="oE4eAUQITDJIZxeSnaea-18" target="oE4eAUQITDJIZxeSnaea-27" edge="1">
          <mxGeometry relative="1" as="geometry">
            <Array as="points">
              <mxPoint x="-165" y="660" />
              <mxPoint x="-105" y="660" />
            </Array>
          </mxGeometry>
        </mxCell>
        <mxCell id="oE4eAUQITDJIZxeSnaea-18" value="num_Ex" style="whiteSpace=wrap;html=1;strokeWidth=1;fontSize=14;" parent="1" vertex="1">
          <mxGeometry x="-180" y="600" width="60" height="40" as="geometry" />
        </mxCell>
        <mxCell id="oE4eAUQITDJIZxeSnaea-21" value="weight_used" style="whiteSpace=wrap;html=1;strokeWidth=1;fontSize=14;" parent="1" vertex="1">
          <mxGeometry x="-538" y="600" width="85" height="40" as="geometry" />
        </mxCell>
        <mxCell id="oE4eAUQITDJIZxeSnaea-24" value="Reps_exercise" style="text;html=1;align=center;verticalAlign=middle;resizable=0;points=[];autosize=1;strokeColor=none;fillColor=none;strokeWidth=1;fontSize=14;" parent="1" vertex="1">
          <mxGeometry x="-311" y="730" width="120" height="30" as="geometry" />
        </mxCell>
        <mxCell id="Sksc7gKFYwSM0jjKkpi2-3" style="edgeStyle=orthogonalEdgeStyle;rounded=0;orthogonalLoop=1;jettySize=auto;html=1;entryX=0.5;entryY=1;entryDx=0;entryDy=0;" parent="1" source="oE4eAUQITDJIZxeSnaea-25" target="Heji60GrNNi6qlhw8bSn-5" edge="1">
          <mxGeometry relative="1" as="geometry" />
        </mxCell>
        <mxCell id="oE4eAUQITDJIZxeSnaea-25" value="&lt;u style=&quot;font-size: 14px;&quot;&gt;num_Ex&lt;/u&gt;" style="whiteSpace=wrap;html=1;strokeWidth=1;fontSize=14;" parent="1" vertex="1">
          <mxGeometry x="-300" y="760" width="59" height="40" as="geometry" />
        </mxCell>
        <mxCell id="oE4eAUQITDJIZxeSnaea-26" value="Time_exercise" style="text;html=1;align=center;verticalAlign=middle;resizable=0;points=[];autosize=1;strokeColor=none;fillColor=none;strokeWidth=1;fontSize=14;" parent="1" vertex="1">
          <mxGeometry x="-150" y="690" width="110" height="30" as="geometry" />
        </mxCell>
        <mxCell id="YUUM3OXBiSdEGIB1kguB-10" style="edgeStyle=orthogonalEdgeStyle;rounded=0;orthogonalLoop=1;jettySize=auto;html=1;strokeWidth=1;fontSize=14;" parent="1" source="oE4eAUQITDJIZxeSnaea-27" edge="1">
          <mxGeometry relative="1" as="geometry">
            <Array as="points">
              <mxPoint x="-105" y="770" />
              <mxPoint x="121" y="770" />
            </Array>
            <mxPoint x="120" y="710" as="targetPoint" />
          </mxGeometry>
        </mxCell>
        <mxCell id="oE4eAUQITDJIZxeSnaea-27" value="&lt;u style=&quot;font-size: 14px;&quot;&gt;num_Ex&lt;/u&gt;" style="whiteSpace=wrap;html=1;strokeWidth=1;fontSize=14;" parent="1" vertex="1">
          <mxGeometry x="-140" y="720" width="60" height="40" as="geometry" />
        </mxCell>
        <mxCell id="e_o81ODW4hOWU4lVUc2N-1" value="set_num" style="whiteSpace=wrap;html=1;strokeWidth=1;fontSize=14;" parent="1" vertex="1">
          <mxGeometry x="-120" y="600" width="60" height="40" as="geometry" />
        </mxCell>
        <mxCell id="WjCr2kuu_2egiRaHOXCZ-1" value="PT_num" style="whiteSpace=wrap;html=1;strokeWidth=1;fontSize=14;" parent="1" vertex="1">
          <mxGeometry x="320" y="1050" width="80" height="40" as="geometry" />
        </mxCell>
        <mxCell id="WjCr2kuu_2egiRaHOXCZ-2" style="edgeStyle=orthogonalEdgeStyle;rounded=0;orthogonalLoop=1;jettySize=auto;html=1;entryX=0.893;entryY=1.01;entryDx=0;entryDy=0;entryPerimeter=0;exitX=1;exitY=0.5;exitDx=0;exitDy=0;strokeWidth=1;fontSize=14;" parent="1" source="WjCr2kuu_2egiRaHOXCZ-1" target="Heji60GrNNi6qlhw8bSn-1" edge="1">
          <mxGeometry relative="1" as="geometry">
            <Array as="points">
              <mxPoint x="800" y="1070" />
              <mxPoint x="800" y="270" />
              <mxPoint x="454" y="270" />
            </Array>
            <mxPoint x="620" y="1060" as="sourcePoint" />
          </mxGeometry>
        </mxCell>
        <mxCell id="_pzWYbwfMfIV2r6GEhSp-4" style="edgeStyle=orthogonalEdgeStyle;rounded=0;orthogonalLoop=1;jettySize=auto;html=1;exitX=0.75;exitY=1;exitDx=0;exitDy=0;strokeWidth=1;fontSize=14;" parent="1" source="HppJ8msKX047GC7xeb63-5" edge="1">
          <mxGeometry relative="1" as="geometry">
            <Array as="points">
              <mxPoint x="-12" y="390" />
              <mxPoint x="-12" y="510" />
              <mxPoint x="30" y="510" />
              <mxPoint x="30" y="1110" />
              <mxPoint x="85" y="1110" />
            </Array>
            <mxPoint x="-12.499999999999545" y="480" as="sourcePoint" />
            <mxPoint x="85" y="1090" as="targetPoint" />
          </mxGeometry>
        </mxCell>
        <mxCell id="HppJ8msKX047GC7xeb63-1" value="Athlete_num" style="whiteSpace=wrap;html=1;strokeWidth=1;fontSize=14;" parent="1" vertex="1">
          <mxGeometry x="-207" y="350" width="91.25" height="40" as="geometry" />
        </mxCell>
        <mxCell id="HppJ8msKX047GC7xeb63-2" value="Workout_progress" style="text;html=1;align=center;verticalAlign=middle;resizable=0;points=[];autosize=1;strokeColor=none;fillColor=none;strokeWidth=1;fontSize=14;" parent="1" vertex="1">
          <mxGeometry x="-290" y="320" width="140" height="30" as="geometry" />
        </mxCell>
        <mxCell id="HppJ8msKX047GC7xeb63-3" value="&lt;u style=&quot;font-size: 14px;&quot;&gt;entry_num&lt;/u&gt;" style="whiteSpace=wrap;html=1;strokeWidth=1;fontSize=14;" parent="1" vertex="1">
          <mxGeometry x="-280" y="350" width="73" height="40" as="geometry" />
        </mxCell>
        <mxCell id="HppJ8msKX047GC7xeb63-4" value="date" style="whiteSpace=wrap;html=1;strokeWidth=1;fontSize=14;" parent="1" vertex="1">
          <mxGeometry x="-118.75" y="350" width="50" height="40" as="geometry" />
        </mxCell>
        <mxCell id="HppJ8msKX047GC7xeb63-5" value="num_workout" style="whiteSpace=wrap;html=1;strokeWidth=1;fontSize=14;" parent="1" vertex="1">
          <mxGeometry x="-68.75" y="350" width="98.75" height="40" as="geometry" />
        </mxCell>
        <mxCell id="YUUM3OXBiSdEGIB1kguB-12" style="edgeStyle=orthogonalEdgeStyle;rounded=0;orthogonalLoop=1;jettySize=auto;html=1;entryX=0.25;entryY=1;entryDx=0;entryDy=0;strokeWidth=1;fontSize=14;" parent="1" source="YUUM3OXBiSdEGIB1kguB-11" target="HppJ8msKX047GC7xeb63-3" edge="1">
          <mxGeometry relative="1" as="geometry">
            <Array as="points">
              <mxPoint x="-794" y="510" />
              <mxPoint x="-262" y="510" />
            </Array>
          </mxGeometry>
        </mxCell>
        <mxCell id="YUUM3OXBiSdEGIB1kguB-11" value="entry_workout_prog" style="whiteSpace=wrap;html=1;strokeWidth=1;fontSize=14;" parent="1" vertex="1">
          <mxGeometry x="-860" y="600" width="127" height="40" as="geometry" />
        </mxCell>
        <mxCell id="YUUM3OXBiSdEGIB1kguB-13" value="entry_workout_prog" style="whiteSpace=wrap;html=1;strokeWidth=1;fontSize=14;" parent="1" vertex="1">
          <mxGeometry x="-312" y="600" width="132" height="40" as="geometry" />
        </mxCell>
        <mxCell id="YUUM3OXBiSdEGIB1kguB-14" style="edgeStyle=orthogonalEdgeStyle;rounded=0;orthogonalLoop=1;jettySize=auto;html=1;entryX=0.405;entryY=0.98;entryDx=0;entryDy=0;entryPerimeter=0;strokeWidth=1;fontSize=14;" parent="1" source="YUUM3OXBiSdEGIB1kguB-13" target="HppJ8msKX047GC7xeb63-3" edge="1">
          <mxGeometry relative="1" as="geometry" />
        </mxCell>
        <mxCell id="Sksc7gKFYwSM0jjKkpi2-1" value="&lt;u style=&quot;font-size: 14px;&quot;&gt;set_num&lt;/u&gt;" style="whiteSpace=wrap;html=1;strokeWidth=1;fontSize=14;" parent="1" vertex="1">
          <mxGeometry x="-205" y="930" width="65" height="40" as="geometry" />
        </mxCell>
        <mxCell id="Sksc7gKFYwSM0jjKkpi2-2" value="is_time" style="whiteSpace=wrap;html=1;strokeWidth=1;fontSize=14;" parent="1" vertex="1">
          <mxGeometry x="645" y="670" width="80" height="40" as="geometry" />
        </mxCell>
        <mxCell id="Sksc7gKFYwSM0jjKkpi2-4" style="edgeStyle=orthogonalEdgeStyle;rounded=0;orthogonalLoop=1;jettySize=auto;html=1;entryX=0.427;entryY=0.991;entryDx=0;entryDy=0;entryPerimeter=0;" parent="1" source="HppJ8msKX047GC7xeb63-1" target="Heji60GrNNi6qlhw8bSn-3" edge="1">
          <mxGeometry relative="1" as="geometry">
            <Array as="points">
              <mxPoint x="-161" y="260" />
              <mxPoint x="248" y="260" />
            </Array>
          </mxGeometry>
        </mxCell>
        <mxCell id="rb-axdhL_rXnswDDN8WG-1" value="password" style="whiteSpace=wrap;html=1;strokeWidth=1;fontSize=14;" vertex="1" parent="1">
          <mxGeometry x="350" y="80" width="70" height="40" as="geometry" />
        </mxCell>
        <mxCell id="rb-axdhL_rXnswDDN8WG-2" value="password" style="whiteSpace=wrap;html=1;strokeWidth=1;fontSize=14;" vertex="1" parent="1">
          <mxGeometry x="520" y="160" width="80" height="40" as="geometry" />
        </mxCell>
      </root>
    </mxGraphModel>
  </diagram>
</mxfile>
